<?xml version="1.0" encoding="UTF-8" standalone="no"?>
<!-- Generator: Adobe Illustrator 16.0.3, SVG Export Plug-In . SVG Version: 6.00 Build 0)  -->

<svg
   xmlns:dc="http://purl.org/dc/elements/1.1/"
   xmlns:cc="http://creativecommons.org/ns#"
   xmlns:rdf="http://www.w3.org/1999/02/22-rdf-syntax-ns#"
   xmlns:svg="http://www.w3.org/2000/svg"
   xmlns="http://www.w3.org/2000/svg"
   xmlns:sodipodi="http://sodipodi.sourceforge.net/DTD/sodipodi-0.dtd"
   xmlns:inkscape="http://www.inkscape.org/namespaces/inkscape"
   version="1.1"
   id="NATRON_LOGO"
   x="0px"
   y="0px"
   width="512px"
   height="512px"
   viewBox="0 0 512 512"
   style="enable-background:new 0 0 512 512;"
   xml:space="preserve"
   sodipodi:docname="NatronPluginManager.svg"
   inkscape:version="0.92.5 (2060ec1f9f, 2020-04-08)"><metadata
   id="metadata887"><rdf:RDF><cc:Work
       rdf:about=""><dc:format>image/svg+xml</dc:format><dc:type
         rdf:resource="http://purl.org/dc/dcmitype/StillImage" /><dc:title></dc:title></cc:Work></rdf:RDF></metadata><defs
   id="defs885">
	
<linearGradient
   id="aigrd1"
   gradientUnits="userSpaceOnUse"
   x1="99.777298"
   y1="15.4238"
   x2="153.0005"
   y2="248.6311"><stop
     offset="0"
     style="stop-color:#184375"
     id="stop53300" /><stop
     offset="1"
     style="stop-color:#C8BDDC"
     id="stop53302" /></linearGradient></defs><sodipodi:namedview
   pagecolor="#ffffff"
   bordercolor="#666666"
   borderopacity="1"
   objecttolerance="10"
   gridtolerance="10"
   guidetolerance="10"
   inkscape:pageopacity="0"
   inkscape:pageshadow="2"
   inkscape:window-width="1366"
   inkscape:window-height="704"
   id="namedview883"
   showgrid="false"
   inkscape:zoom="0.72644173"
   inkscape:cx="263.93878"
   inkscape:cy="211.98634"
   inkscape:window-x="0"
   inkscape:window-y="27"
   inkscape:window-maximized="1"
   inkscape:current-layer="NATRON_LOGO" />
<g
   id="g20630"
   inkscape:label="NatronPluginManager"><g
     id="g879">
		
		
		<g
   style="display:inline"
   id="g20584"><path
     style="display:inline;fill:#ffffff;fill-opacity:1;stroke:none"
     d="m 152.755,479 c -13.75,0 -30.618,-9.747 -37.484,-21.66 L 11.995,278.16 c -6.866,-11.913 -6.866,-31.407 0,-43.32 L 115.271,55.66 C 122.137,43.747 139.005,34 152.755,34 h 206.49 c 13.75,0 30.618,9.747 37.483,21.66 l 103.277,179.18 c 6.866,11.913 6.866,31.407 0,43.32 L 396.729,457.34 C 389.864,469.253 372.996,479 359.246,479 Z"
     id="path20620"
     inkscape:connector-curvature="0" /><path
     inkscape:connector-curvature="0"
     id="path871"
     d="m 159.5898,464.27053 c -12.83975,0 -28.59109,-9.10175 -35.00256,-20.22611 L 28.148093,276.72611 c -6.411472,-11.12436 -6.411472,-29.32786 0,-40.45222 L 124.58724,68.955576 c 6.41147,-11.124361 22.16281,-20.226111 35.00256,-20.226111 h 192.8204 c 12.83975,0 28.59109,9.10175 35.00163,20.226111 l 96.44008,167.318314 c 6.41147,11.12436 6.41147,29.32786 0,40.45222 l -96.43915,167.31831 c -6.41054,11.12436 -22.16188,20.22611 -35.00163,20.22611 z"
     style="display:inline;fill:none;stroke:#000000;stroke-width:11.64676666;stroke-miterlimit:4;stroke-dasharray:none;stroke-opacity:1" /><path
     style="display:inline;stroke-width:0.93380016"
     d="m 158.76259,72.202137 c -5.1359,-0.0028 -11.4444,3.631023 -14.01795,8.075912 L 124.21563,115.73328 167.7413,72.207608 Z m 32.73407,0.01824 -1.04141,1.422587 c 5.24339,6.061044 9.98425,12.56865 14.16203,19.458425 l 17.27713,-5.684873 c 2.5089,4.39216 4.82584,8.910932 6.92143,13.551044 l -14.75295,10.63657 c 3.09418,7.34104 5.59091,14.99702 7.43392,22.90546 l 18.18722,-0.0693 c 1.0143,4.935 1.80148,9.95424 2.35274,15.04111 l -17.31725,5.55539 c 0.32867,3.96997 0.50885,7.97928 0.50885,12.0318 0,4.05253 -0.17556,8.06635 -0.50885,12.03179 l 17.31725,5.55538 c -0.55401,5.0892 -1.33624,10.1083 -2.35456,15.04111 l -18.18175,-0.0693 c -1.84532,7.90855 -4.34302,15.56579 -7.4394,22.90912 l 14.75295,10.63656 c -2.09557,4.63793 -4.41007,9.15887 -6.92325,13.55105 l -17.2753,-5.68488 c -4.17765,6.89208 -8.91828,13.39896 -14.16385,19.46208 l 10.74234,14.66905 c -3.41813,3.75544 -7.01242,7.34939 -10.76788,10.7697 L 175.7552,275.19428 c -6.06323,5.24337 -12.57268,9.98438 -19.46026,14.16203 l 5.68306,17.27712 c -4.38997,2.51328 -8.90912,4.82514 -13.54923,6.92508 l -10.63838,-14.7566 c -7.34333,3.09635 -14.99692,5.59494 -22.90547,7.43575 l 0.0693,18.18722 c -4.9328,1.01878 -9.95204,1.80052 -15.041114,2.35638 l -5.55538,-17.3209 c -3.967643,0.33097 -7.979624,0.51068 -12.029973,0.51068 -2.711952,0 -5.403187,-0.0869 -8.075912,-0.23892 l 70.693439,121.94113 c 2.57635,4.44302 8.88751,8.08041 14.02341,8.08321 l 173.1032,0.0967 c -2.87421,-7.58543 -5.27108,-15.40628 -7.14028,-23.43072 l -23.58211,0.0857 c -1.32111,-6.39797 -2.33678,-12.90797 -3.05491,-19.50766 l 22.46228,-7.20049 c -0.42812,-5.14474 -0.66024,-10.34698 -0.66024,-15.60285 0,-5.25383 0.23212,-10.4563 0.66024,-15.60103 l -22.46228,-7.20777 c 0.71823,-6.59556 1.734,-13.10593 3.05309,-19.50402 l 23.58393,0.0948 c 2.38917,-10.25666 5.62761,-20.18639 9.64258,-29.70835 L 315.4404,288.479 c 2.71848,-6.01734 5.71915,-11.87961 8.97688,-17.57805 l 22.40937,7.37374 c 5.41651,-8.93545 11.56484,-17.3749 18.36413,-25.23814 l -13.93222,-19.02617 c 4.43276,-4.87109 9.09195,-9.53028 13.96506,-13.96506 l 19.028,13.93404 c 7.86121,-6.79941 16.30066,-12.94975 25.23813,-18.36412 l -7.37373,-22.40573 c 4.70238,-2.6897 9.51876,-5.1924 14.43924,-7.51782 l 15.00099,14.99916 1.92779,2.67556 c 0.1774,-0.0765 0.35955,-0.14079 0.53803,-0.21522 l 9.99276,9.99459 -76.9601,-132.751006 c -2.57635,-4.443955 -8.88568,-8.080406 -14.02159,-8.083208 z M 452.8914,228.45681 c -59.68791,21.51521 -102.37149,78.63577 -102.37149,145.74214 l -0.002,0.002 c 0,19.44516 3.5927,38.05139 10.13684,55.19999 l -10.46331,10.46149 3.0458,0.002 c 5.1359,0.003 11.44439,-3.63103 14.01794,-8.07592 l 97.01313,-167.55703 c 2.57355,-4.44489 2.57101,-11.7161 -0.006,-16.15912 z"
     id="path873"
     inkscape:connector-curvature="0" /><path
     inkscape:connector-curvature="0"
     id="path875"
     d="m 464.26358,248.07245 -9.69471,5.62055 9.3e-4,9.3e-4 c 0.0206,0.0345 0.15595,0.3399 0.25306,0.79747 0.0999,0.45662 0.16995,1.05799 0.16809,1.65936 0.002,0.64432 -0.0775,1.29051 -0.18676,1.75741 -0.056,0.23345 -0.11486,0.42114 -0.16342,0.54534 l -0.057,0.1354 -0.014,0.029 v 0 l -97.0125,167.5555 -9.3e-4,9.3e-4 c -0.0196,0.0402 -0.23532,0.3287 -0.60884,0.6574 -0.55187,0.50331 -1.45486,1.0804 -2.26073,1.41564 -0.4006,0.17182 -0.77225,0.28854 -1.04119,0.34737 -0.13446,0.0299 -0.24185,0.0476 -0.31095,0.057 l -0.0766,0.007 -0.0168,9.4e-4 0.002,0.0532 v -0.0532 h -0.002 l 0.002,0.0532 v -0.0532 10.91892 l 0.028,-10.91892 h -0.028 v 10.91892 l 0.028,-10.91892 -0.0233,9.24088 0.0261,-9.24088 h -0.003 l -0.0233,9.24088 0.0261,-9.24088 c -0.0168,9.3e-4 -0.18956,-0.004 -0.55374,0.0121 l 0.51732,11.19346 0.007,-11.2056 -194.26965,-0.10739 h -0.002 c -0.0458,0.002 -0.40527,-0.0401 -0.87964,-0.1989 -0.71529,-0.22691 -1.6715,-0.71996 -2.36718,-1.25316 -0.35018,-0.26146 -0.63966,-0.5276 -0.82642,-0.73023 -0.0943,-0.10085 -0.16341,-0.18583 -0.20637,-0.24279 l -0.0448,-0.0626 -0.008,-0.0131 -0.042,0.0243 0.042,-0.0233 v -9.4e-4 l -0.042,0.0243 0.042,-0.0233 L 57.431132,258.376 v -9.3e-4 -9.3e-4 c -0.02148,-0.0336 -0.155945,-0.33897 -0.25306,-0.79747 -0.10085,-0.45663 -0.169018,-1.05986 -0.168084,-1.6603 -0.0019,-0.64525 0.07751,-1.29051 0.188628,-1.75741 0.05416,-0.23345 0.114857,-0.42207 0.161547,-0.54534 l 0.05696,-0.1354 0.01401,-0.028 v 0 L 154.4427,85.892844 l 9.3e-4,-9.34e-4 c 0.0205,-0.03922 0.23532,-0.328698 0.60884,-0.657395 0.55187,-0.503319 1.45486,-1.081341 2.26073,-1.415641 0.4006,-0.170886 0.77412,-0.287611 1.04212,-0.347374 0.13353,-0.02988 0.24092,-0.04762 0.31095,-0.05603 l 0.0766,-0.0075 0.0149,-9.33e-4 -0.002,-0.05416 v 0.05416 h 0.002 l -0.002,-0.05416 v 0.05416 -4.952876 l -0.002,4.952876 h 0.002 v -4.952876 l -0.002,4.952876 0.005,-10.61544 -0.0579,10.61544 h 0.0532 l 0.005,-10.61544 -0.0579,10.61544 h 0.028 l 194.29673,0.108321 h 0.003 c 0.0467,-9.34e-4 0.40621,0.04015 0.87871,0.198899 0.71622,0.226913 1.67057,0.71996 2.36625,1.252226 0.35111,0.262398 0.64059,0.527597 0.82641,0.730232 0.0962,0.10085 0.16435,0.185826 0.20731,0.242788 l 0.0448,0.06256 0.008,0.01307 0.042,-0.02615 -0.042,0.02521 v 9.34e-4 l 0.042,-0.02615 -0.042,0.02521 h -9.3e-4 l 97.21046,167.677823 9.69378,-5.61961 9.69471,-5.62054 -97.2087,-167.677775 h -9.4e-4 c -1.31012,-2.252326 -2.89011,-4.103118 -4.5999,-5.705519 -2.57448,-2.392396 -5.45712,-4.246923 -8.6087,-5.635484 -1.57812,-0.690078 -3.22815,-1.256895 -4.96968,-1.665899 -1.74154,-0.407137 -3.57646,-0.659263 -5.5309,-0.662064 L 158.76899,60.996798 h 0.0551 -0.0588 -0.0103 l 0.002,7.068867 v -7.068867 h -0.002 l 0.002,7.068867 v -7.068867 c -2.60623,0.0047 -4.99956,0.442621 -7.24348,1.118692 -3.36075,1.028114 -6.41054,2.59223 -9.1914,4.624179 -1.38763,1.020643 -2.70522,2.164548 -3.9313,3.4672 -1.22421,1.303585 -2.36158,2.765916 -3.343,4.457028 L 38.035169,242.22033 c -1.304519,2.2626 -2.124396,4.55788 -2.662265,6.84195 -0.531332,2.28594 -0.773186,4.57002 -0.775054,6.85316 0.0019,2.28781 0.24559,4.57282 0.77879,6.86063 0.539736,2.28408 1.36148,4.57842 2.665999,6.83915 v -9.3e-4 l 97.209531,167.67782 v 9.4e-4 c 1.31105,2.25139 2.89011,4.10312 4.5999,5.70365 2.57449,2.3924 5.45619,4.24692 8.60777,5.63548 1.57812,0.69008 3.22815,1.2569 4.96968,1.6659 1.74154,0.40714 3.57646,0.65927 5.53184,0.66207 l 194.53111,0.10738 0.26053,-0.0131 -0.51452,-11.12623 0.042,11.1393 c 0.0831,-9.3e-4 0.23625,-9.3e-4 0.4725,-0.0131 l -0.51452,-11.12623 0.042,11.1393 -0.0411,-10.98429 -0.0299,10.98429 h 0.071 l -0.0411,-10.98429 -0.0299,10.98429 h 0.004 0.028 c 2.60624,-0.005 4.99957,-0.44448 7.24349,-1.11869 3.36168,-1.02811 6.4096,-2.59129 9.19233,-4.62324 1.38669,-1.02065 2.70428,-2.16362 3.93129,-3.4672 1.22515,-1.30359 2.36065,-2.76685 3.34301,-4.45703 l 97.01437,-167.55643 c 1.30358,-2.2626 2.12439,-4.55788 2.66226,-6.84102 0.53133,-2.28594 0.77319,-4.57095 0.77505,-6.8541 -0.002,-2.28687 -0.24559,-4.57375 -0.77879,-6.86062 -0.5388,-2.28501 -1.36148,-4.57936 -2.66506,-6.83916 z"
     style="display:inline;fill:#ffffff;stroke-width:0.93380016" /></g>
		
	</g></g>
</svg>